<?xml version="1.0" encoding="UTF-8"?>
<svg version="1.1" xmlns="http://www.w3.org/2000/svg" width="264" height="75">
<path d="M0 0 C3.36617801 2.97716215 5.25148262 6.2505416 6.65625 10.46484375 C7.18412109 9.45164062 7.18412109 9.45164062 7.72265625 8.41796875 C10.83667158 2.79160163 13.32184693 -1.55722011 19.65625 -3.53515625 C26.49097383 -5.14733363 32.36239944 -4.73794411 38.65625 -1.53515625 C42.34720502 1.23306002 43.4532328 2.66630945 44.59375 7.15234375 C44.614375 8.24546875 44.635 9.33859375 44.65625 10.46484375 C42.65625 12.46484375 42.65625 12.46484375 39.34375 12.90234375 C34.7179731 12.35352276 33.8632392 10.67183295 30.65625 7.46484375 C27.07033529 6.63101073 27.07033529 6.63101073 23.65625 7.46484375 C20.82163972 11.09996897 20.2464079 13.91214236 20.28125 18.46484375 C20.27351563 19.47546875 20.26578125 20.48609375 20.2578125 21.52734375 C20.71469981 24.89576783 21.56812396 26.79319981 23.65625 29.46484375 C27.11329496 30.2983019 27.11329496 30.2983019 30.65625 29.46484375 C33.01272001 27.12404618 33.01272001 27.12404618 34.65625 24.46484375 C37.44488007 23.07052871 39.57703868 23.20824281 42.65625 23.46484375 C44.65625 26.46484375 44.65625 26.46484375 44.71875 29.77734375 C43.3119911 34.65962465 40.74882497 36.64824481 36.65625 39.46484375 C35.66625 39.95984375 35.66625 39.95984375 34.65625 40.46484375 C37.62625 41.45484375 40.59625 42.44484375 43.65625 43.46484375 C43.65625 44.78484375 43.65625 46.10484375 43.65625 47.46484375 C35.4339107 47.78728843 35.4339107 47.78728843 32.09375 46.40234375 C28.41455057 44.98726705 25.51136595 45.81143427 21.65625 46.46484375 C21.32625 47.78484375 20.99625 49.10484375 20.65625 50.46484375 C24.38689844 52.95194271 26.23256968 52.76475428 30.65625 52.46484375 C31.625625 52.11421875 32.595 51.76359375 33.59375 51.40234375 C37.67659482 50.15249329 40.47094215 50.74323895 44.65625 51.46484375 C43.90625 53.40234375 43.90625 53.40234375 42.65625 55.46484375 C37.79170056 57.17322316 32.42963173 56.68943022 27.34375 56.71484375 C26.32345703 56.73546875 25.30316406 56.75609375 24.25195312 56.77734375 C18.176951 56.8087594 14.07549302 56.18520352 8.65625 53.46484375 C5.49670003 53.26642413 5.49670003 53.26642413 2.25 54.9375 C-3.34999435 57.10916143 -8.90759554 56.94098144 -14.84375 56.90234375 C-16.47763672 56.93231445 -16.47763672 56.93231445 -18.14453125 56.96289062 C-24.99305324 56.95875004 -29.54801065 56.1960653 -35.34375 52.46484375 C-36.65625 50.02734375 -36.65625 50.02734375 -36.34375 47.46484375 C-32.73119381 42.45387872 -29.13054045 41.54373689 -23.34375 40.46484375 C-24.230625 39.92859375 -25.1175 39.39234375 -26.03125 38.83984375 C-31.21883891 35.33239593 -34.87597653 31.1653047 -36.12109375 24.8671875 C-36.84874157 17.01625054 -36.51945697 9.53827198 -31.72265625 3.046875 C-23.6095865 -6.26132117 -9.96976281 -7.04829543 0 0 Z M-20.71875 8.08984375 C-24.16233877 13.12278119 -24.75374413 17.42221283 -23.875 23.34375 C-23.05744334 26.60796519 -21.91227911 28.30187186 -19.34375 30.46484375 C-15.45434061 31.5963083 -13.30936354 31.85108916 -9.53125 30.33984375 C-6.27003463 27.54451629 -5.51729494 25.34594696 -5.125 21.09375 C-4.94529711 16.05458136 -5.03913101 12.53206712 -8.34375 8.46484375 C-10.33334408 6.05144484 -10.33334408 6.05144484 -14.21875 6.08984375 C-17.21621536 6.1767268 -18.16872238 6.34508801 -20.71875 8.08984375 Z M6.65625 22.46484375 C6.43710938 23.20089844 6.21796875 23.93695313 5.9921875 24.6953125 C3.89530386 31.14791784 2.27399709 34.63999467 -3.34375 38.46484375 C-4.36130001 39.44698019 -5.36575242 40.44331512 -6.34375 41.46484375 C-5.66828125 41.64660156 -4.9928125 41.82835938 -4.296875 42.015625 C-3.40484375 42.26699219 -2.5128125 42.51835938 -1.59375 42.77734375 C-0.71203125 43.02097656 0.1696875 43.26460937 1.078125 43.515625 C3.71397505 44.48609706 5.51032326 45.67490019 7.65625 47.46484375 C8.15125 46.84609375 8.64625 46.22734375 9.15625 45.58984375 C12.53846437 42.71496153 15.32882085 42.33032958 19.65625 41.46484375 C17.90962575 39.62629191 16.24639492 38.17794519 14.15625 36.71484375 C9.92970616 32.9109543 8.49224372 27.98240229 7.65625 22.46484375 C7.32625 22.46484375 6.99625 22.46484375 6.65625 22.46484375 Z M-23.34375 46.46484375 C-23.67375 47.45484375 -24.00375 48.44484375 -24.34375 49.46484375 C-21.25663967 52.84596458 -19.11316411 53.41520413 -14.46875 53.71484375 C-10.68577195 53.68692509 -8.41367412 52.76728684 -5.34375 50.46484375 C-5.67362639 47.99077083 -5.92347087 46.80106705 -7.90625 45.21484375 C-13.09222602 43.61915882 -18.59953113 43.73332379 -23.34375 46.46484375 Z " fill="#7AAD32" transform="translate(97.34375,18.53515625)"/>
<path d="M0 0 C0.639375 0.639375 1.27875 1.27875 1.9375 1.9375 C2.783125 1.298125 3.62875 0.65875 4.5 0 C9.08097877 -3.02172543 13.17163566 -3.33651343 18.5625 -2.5 C22.91348777 -0.64680151 24.29156201 1.04641472 26.9375 4.9375 C28.74925438 10.14736378 28.16185262 15.9688421 28.17773438 21.40966797 C28.18746907 23.4310782 28.2185344 25.45148301 28.25 27.47265625 C28.25773437 29.38884766 28.25773437 29.38884766 28.265625 31.34375 C28.2749707 32.51228516 28.28431641 33.68082031 28.29394531 34.88476562 C27.90841545 38.18659127 27.17333535 39.53785097 24.9375 41.9375 C25.9275 42.5975 26.9175 43.2575 27.9375 43.9375 C28.40625 46.43359375 28.40625 46.43359375 28.4375 49.375 C28.4684375 50.34308594 28.499375 51.31117187 28.53125 52.30859375 C27.9375 54.9375 27.9375 54.9375 25.74468994 56.57952881 C22.67778744 58.06313531 20.81141 58.30699257 17.42871094 58.29394531 C16.35119568 58.29694641 15.27368042 58.29994751 14.16351318 58.30303955 C13.01127258 58.29069275 11.85903198 58.27834595 10.671875 58.265625 C9.48273499 58.26375183 8.29359497 58.26187866 7.06842041 58.25994873 C4.56023343 58.25323519 2.0520568 58.23933465 -0.45605469 58.21875 C-4.31194698 58.18750448 -8.16743098 58.17776953 -12.0234375 58.171875 C-14.45833836 58.16270875 -16.89323504 58.15233419 -19.328125 58.140625 C-21.06863129 58.13425018 -21.06863129 58.13425018 -22.84429932 58.12774658 C-23.90920593 58.11813904 -24.97411255 58.10853149 -26.07128906 58.09863281 C-27.48429291 58.08839081 -27.48429291 58.08839081 -28.92584229 58.07794189 C-31.0625 57.9375 -31.0625 57.9375 -32.0625 56.9375 C-32.13521741 54.58436445 -32.14620868 52.22916332 -32.125 49.875 C-32.11597656 48.58464844 -32.10695312 47.29429688 -32.09765625 45.96484375 C-32.08605469 44.96582031 -32.07445312 43.96679688 -32.0625 42.9375 C-31.0725 42.4425 -31.0725 42.4425 -30.0625 41.9375 C-30.7225 41.2775 -31.3825 40.6175 -32.0625 39.9375 C-32.27482062 36.94802561 -32.36645718 34.05356134 -32.36328125 31.0625 C-32.36756638 30.18223145 -32.3718515 29.30196289 -32.37626648 28.39501953 C-32.38201441 26.53223532 -32.38250664 24.66942866 -32.37817383 22.80664062 C-32.37501253 19.94883159 -32.39847138 17.09205603 -32.42382812 14.234375 C-32.42610085 12.42708465 -32.42680474 10.61979149 -32.42578125 8.8125 C-32.434991 7.95414551 -32.44420074 7.09579102 -32.45368958 6.21142578 C-32.43481445 3.8046875 -32.43481445 3.8046875 -32.0625 -0.0625 C-28.80486778 -2.23425481 -27.83810787 -2.52293998 -24.0625 -2.0625 C-21.75 -0.5625 -21.75 -0.5625 -20.0625 0.9375 C-19.19625 0.2259375 -19.19625 0.2259375 -18.3125 -0.5 C-12.68937092 -4.40495075 -5.51799264 -3.71619912 0 0 Z M-18.875 9.25 C-21.25206934 12.62794064 -21.21791163 15.81638033 -21.30859375 19.8125 C-21.34146484 20.96234375 -21.37433594 22.1121875 -21.40820312 23.296875 C-21.46939864 25.72386304 -21.52669075 28.15095265 -21.58007812 30.578125 C-21.61423828 31.72796875 -21.64839844 32.8778125 -21.68359375 34.0625 C-21.7086499 35.11695312 -21.73370605 36.17140625 -21.75952148 37.2578125 C-22.0625 39.9375 -22.0625 39.9375 -24.0625 42.9375 C-23.0725 42.9375 -22.0825 42.9375 -21.0625 42.9375 C-21.12050781 43.55238281 -21.17851562 44.16726562 -21.23828125 44.80078125 C-21.37523776 47.25425927 -21.39874897 49.50185041 -21.0625 51.9375 C-19.11722892 54.28817127 -19.11722892 54.28817127 -16.0625 54.9375 C-11.71576382 54.89535562 -11.71576382 54.89535562 -8.0625 52.9375 C-7.99044489 51.25141034 -7.97863932 49.56249341 -8 47.875 C-8.00902344 46.95589844 -8.01804687 46.03679688 -8.02734375 45.08984375 C-8.03894531 44.37957031 -8.05054687 43.66929688 -8.0625 42.9375 C-6.5775 42.4425 -6.5775 42.4425 -5.0625 41.9375 C-5.7225 41.2775 -6.3825 40.6175 -7.0625 39.9375 C-7.33374023 37.3112793 -7.33374023 37.3112793 -7.37109375 34.01171875 C-7.39623047 32.82255859 -7.42136719 31.63339844 -7.44726562 30.40820312 C-7.48225784 27.89783583 -7.51354315 25.38741397 -7.54101562 22.87695312 C-7.56744141 21.68392578 -7.59386719 20.49089844 -7.62109375 19.26171875 C-7.63454834 18.16947998 -7.64800293 17.07724121 -7.66186523 15.9519043 C-8.11361629 12.55289741 -8.96502741 10.63654217 -11.0625 7.9375 C-14.33677082 7.3917882 -16.14399296 7.27237421 -18.875 9.25 Z M5.125 9.25 C2.74793066 12.62794064 2.78208837 15.81638033 2.69140625 19.8125 C2.65853516 20.96234375 2.62566406 22.1121875 2.59179688 23.296875 C2.53060136 25.72386304 2.47330925 28.15095265 2.41992188 30.578125 C2.38576172 31.72796875 2.35160156 32.8778125 2.31640625 34.0625 C2.2913501 35.11695312 2.26629395 36.17140625 2.24047852 37.2578125 C1.9375 39.9375 1.9375 39.9375 -0.0625 42.9375 C0.9275 42.9375 1.9175 42.9375 2.9375 42.9375 C2.92589844 43.56398437 2.91429687 44.19046875 2.90234375 44.8359375 C2.89332031 45.65320312 2.88429687 46.47046875 2.875 47.3125 C2.86339844 48.12460938 2.85179687 48.93671875 2.83984375 49.7734375 C2.79283666 51.98687142 2.79283666 51.98687142 3.9375 53.9375 C10.10892235 55.21511453 10.10892235 55.21511453 15.9375 52.9375 C15.9375 49.6375 15.9375 46.3375 15.9375 42.9375 C16.9275 42.9375 17.9175 42.9375 18.9375 42.9375 C18.9375 42.2775 18.9375 41.6175 18.9375 40.9375 C18.2775 40.9375 17.6175 40.9375 16.9375 40.9375 C16.92291748 40.07995117 16.90833496 39.22240234 16.89331055 38.33886719 C16.83214522 35.14789587 16.75797238 31.95756413 16.67504883 28.76708984 C16.64185807 27.38797333 16.61380783 26.00872289 16.59106445 24.62939453 C16.55741358 22.64327694 16.50355271 20.65753441 16.44921875 18.671875 C16.42303467 17.47788086 16.39685059 16.28388672 16.36987305 15.05371094 C15.90679568 11.71620696 15.33960394 10.26840163 12.9375 7.9375 C9.69063026 7.46399816 7.82927198 7.29173408 5.125 9.25 Z " fill="#76AB2C" transform="translate(32.0625,17.0625)"/>
<path d="M0 0 C2 2 2 2 2.1953125 4.3828125 C2.17210937 5.28773437 2.14890625 6.19265625 2.125 7.125 C2.10695312 8.03507813 2.08890625 8.94515625 2.0703125 9.8828125 C2.04710937 10.58148438 2.02390625 11.28015625 2 12 C3.423125 11.9071875 3.423125 11.9071875 4.875 11.8125 C5.90625 11.874375 6.9375 11.93625 8 12 C10 15 10 15 9.6875 17.125 C9 19 9 19 8 20 C6.02 20 4.04 20 2 20 C2.33 27.92 2.66 35.84 3 44 C5.31 44.66 7.62 45.32 10 46 C10.80967438 48.91482778 11.21845993 50.46113217 10.0625 53.3125 C9.711875 53.869375 9.36125 54.42625 9 55 C9.99 55.495 9.99 55.495 11 56 C10.67 56.99 10.34 57.98 10 59 C7.36 59 4.72 59 2 59 C2 61.97 2 64.94 2 68 C4.31 68 6.62 68 9 68 C9.33 68.66 9.66 69.32 10 70 C6.94436853 71.52781574 3.75376118 71.14210254 0.40234375 71.1328125 C-0.34712021 71.13376923 -1.09658417 71.13472595 -1.86875916 71.13571167 C-3.45327844 71.13639241 -5.03780052 71.13454551 -6.62231445 71.13037109 C-9.05621555 71.12501383 -11.48993273 71.13032347 -13.92382812 71.13671875 C-15.46093791 71.1360581 -16.99804758 71.1347772 -18.53515625 71.1328125 C-19.26742935 71.13483673 -19.99970245 71.13686096 -20.75416565 71.13894653 C-25.88504332 71.11495668 -25.88504332 71.11495668 -27 70 C-27.07271741 67.64686445 -27.08370868 65.29166332 -27.0625 62.9375 C-27.05347656 61.64714844 -27.04445312 60.35679688 -27.03515625 59.02734375 C-27.02355469 58.02832031 -27.01195312 57.02929688 -27 56 C-26.01 55.505 -26.01 55.505 -25 55 C-25.66 54.34 -26.32 53.68 -27 53 C-27.21232062 50.01052561 -27.30395718 47.11606134 -27.30078125 44.125 C-27.30506638 43.24473145 -27.3093515 42.36446289 -27.31376648 41.45751953 C-27.31951441 39.59473532 -27.32000664 37.73192866 -27.31567383 35.86914062 C-27.31251253 33.01133159 -27.33597138 30.15455603 -27.36132812 27.296875 C-27.36360085 25.48958465 -27.36430474 23.68229149 -27.36328125 21.875 C-27.372491 21.01664551 -27.38170074 20.15829102 -27.39118958 19.27392578 C-27.37231445 16.8671875 -27.37231445 16.8671875 -27 13 C-23.11986924 10.41324616 -21.47050246 11.20169599 -17 12 C-16.01 12 -15.02 12 -14 12 C-12.68 12 -11.36 12 -10 12 C-10.061875 10.7625 -10.12375 9.525 -10.1875 8.25 C-10.16824141 5.53453903 -10.01575524 4.03707115 -8.9375 1.5 C-5.98282668 -0.78748902 -3.61341086 -0.39419028 0 0 Z M-15 20 C-15.01458252 20.91289795 -15.02916504 21.8257959 -15.04418945 22.76635742 C-15.10540795 26.16798611 -15.17958873 29.56882681 -15.26245117 32.9699707 C-15.29561259 34.43926422 -15.32367178 35.90868244 -15.34643555 37.37817383 C-15.38014519 39.49614368 -15.43246433 41.61297995 -15.48828125 43.73046875 C-15.51446533 45.00301514 -15.54064941 46.27556152 -15.56762695 47.58666992 C-16.02000282 51.15791044 -16.92098662 53.10293479 -19 56 C-18.01 56.33 -17.02 56.66 -16 57 C-15.67 60.63 -15.34 64.26 -15 68 C-13.35 68 -11.7 68 -10 68 C-9.97873047 66.96939453 -9.97873047 66.96939453 -9.95703125 65.91796875 C-9.81281183 63.19339102 -9.60862014 60.6616416 -9 58 C-6.4375 55.875 -6.4375 55.875 -4 55 C-4.639375 54.443125 -5.27875 53.88625 -5.9375 53.3125 C-9.42465258 49.40266226 -9.14148151 44.8970363 -9.31640625 39.82421875 C-9.37924805 38.08881836 -9.37924805 38.08881836 -9.44335938 36.31835938 C-9.48267578 35.12017578 -9.52199219 33.92199219 -9.5625 32.6875 C-9.62727539 30.8612207 -9.62727539 30.8612207 -9.69335938 28.99804688 C-9.79921496 25.9988053 -9.90129726 22.99948409 -10 20 C-11.65 20 -13.3 20 -15 20 Z " fill="#1A1A1A" transform="translate(212,4)"/>
<path d="M0 0 C4.39618774 3.88813774 6.50186933 8.18962698 6.89453125 13.9765625 C7.29100226 28.86922821 7.29100226 28.86922821 2.65625 34.46484375 C0.23966238 36.90609043 -2.25062154 38.91827952 -5.34375 40.46484375 C-4.56128906 40.74199219 -3.77882812 41.01914062 -2.97265625 41.3046875 C-1.45478516 41.84802734 -1.45478516 41.84802734 0.09375 42.40234375 C1.60775391 42.94181641 1.60775391 42.94181641 3.15234375 43.4921875 C5.65625 44.46484375 5.65625 44.46484375 6.65625 45.46484375 C7.03125 48.83984375 7.03125 48.83984375 6.65625 52.46484375 C0.57662352 57.53119915 -7.10583271 56.71286685 -14.59375 56.77734375 C-15.70105469 56.80634766 -16.80835938 56.83535156 -17.94921875 56.86523438 C-24.89592037 56.9189247 -29.47184674 56.27704254 -35.34375 52.46484375 C-36.65625 50.02734375 -36.65625 50.02734375 -36.34375 47.46484375 C-32.73119381 42.45387872 -29.13054045 41.54373689 -23.34375 40.46484375 C-24.230625 39.92859375 -25.1175 39.39234375 -26.03125 38.83984375 C-31.21883891 35.33239593 -34.87597653 31.1653047 -36.12109375 24.8671875 C-36.84874157 17.01625054 -36.51945697 9.53827198 -31.72265625 3.046875 C-23.6095865 -6.26132117 -9.96976281 -7.04829543 0 0 Z M-20.71875 8.08984375 C-24.16233877 13.12278119 -24.75374413 17.42221283 -23.875 23.34375 C-23.05744334 26.60796519 -21.91227911 28.30187186 -19.34375 30.46484375 C-15.45434061 31.5963083 -13.30936354 31.85108916 -9.53125 30.33984375 C-6.27003463 27.54451629 -5.51729494 25.34594696 -5.125 21.09375 C-4.94529711 16.05458136 -5.03913101 12.53206712 -8.34375 8.46484375 C-10.33334408 6.05144484 -10.33334408 6.05144484 -14.21875 6.08984375 C-17.21621536 6.1767268 -18.16872238 6.34508801 -20.71875 8.08984375 Z M-23.34375 46.46484375 C-23.67375 47.45484375 -24.00375 48.44484375 -24.34375 49.46484375 C-21.25663967 52.84596458 -19.11316411 53.41520413 -14.46875 53.71484375 C-10.68577195 53.68692509 -8.41367412 52.76728684 -5.34375 50.46484375 C-5.67362639 47.99077083 -5.92347087 46.80106705 -7.90625 45.21484375 C-13.09222602 43.61915882 -18.59953113 43.73332379 -23.34375 46.46484375 Z " fill="#131313" transform="translate(257.34375,18.53515625)"/>
<path d="M0 0 C2.9375 0.8125 2.9375 0.8125 4.9375 2.8125 C5.25634766 5.33447266 5.25634766 5.33447266 5.3515625 8.4765625 C5.39023438 9.59804687 5.42890625 10.71953125 5.46875 11.875 C5.4996875 13.050625 5.530625 14.22625 5.5625 15.4375 C5.60117188 16.62085937 5.63984375 17.80421875 5.6796875 19.0234375 C5.77418845 21.95296691 5.85974558 24.88248597 5.9375 27.8125 C6.66195312 26.95785156 7.38640625 26.10320313 8.1328125 25.22265625 C9.10861838 24.10610913 10.08522334 22.99026002 11.0625 21.875 C11.536875 21.31103516 12.01125 20.74707031 12.5 20.16601562 C14.99826804 17.34702399 16.44642234 15.9675454 20.1171875 14.80859375 C22.9375 14.8125 22.9375 14.8125 25.9375 16.8125 C26.5625 19.4375 26.5625 19.4375 25.9375 22.8125 C24.1650375 24.9310147 22.30659545 26.81792947 20.2734375 28.6875 C18.60633424 30.80560348 18.60633424 30.80560348 19.46484375 33.62890625 C21.39867725 37.80947469 23.76152751 41.66672477 26.27929688 45.51367188 C29.01154275 49.99138154 29.15670136 52.76152292 27.9375 57.8125 C27.2775 57.8125 26.6175 57.8125 25.9375 57.8125 C25.9375 58.4725 25.9375 59.1325 25.9375 59.8125 C26.9275 59.8125 27.9175 59.8125 28.9375 59.8125 C28.9375 60.8025 28.9375 61.7925 28.9375 62.8125 C27.2578125 64.19921875 27.2578125 64.19921875 25.0625 65.5 C24.34320313 65.93699219 23.62390625 66.37398438 22.8828125 66.82421875 C20.9375 67.8125 20.9375 67.8125 18.9375 67.8125 C18.9375 68.4725 18.9375 69.1325 18.9375 69.8125 C19.72125 69.956875 20.505 70.10125 21.3125 70.25 C23.9375 70.8125 23.9375 70.8125 25.9375 71.8125 C25.6075 72.8025 25.2775 73.7925 24.9375 74.8125 C17.82236245 75.34949151 12.48754254 73.50957634 5.9375 70.8125 C5.6075 72.1325 5.2775 73.4525 4.9375 74.8125 C1.3075 74.8125 -2.3225 74.8125 -6.0625 74.8125 C-6.0625 69.8625 -6.0625 64.9125 -6.0625 59.8125 C-5.0725 59.3175 -5.0725 59.3175 -4.0625 58.8125 C-4.7225 58.1525 -5.3825 57.4925 -6.0625 56.8125 C-6.32319641 54.54212952 -6.32319641 54.54212952 -6.3371582 51.67602539 C-6.34669022 50.60473892 -6.35622223 49.53345245 -6.36604309 48.42970276 C-6.36513168 47.26825241 -6.36422028 46.10680206 -6.36328125 44.91015625 C-6.36756638 43.72151474 -6.3718515 42.53287323 -6.37626648 41.30821228 C-6.38201819 38.79052366 -6.38250389 36.27281842 -6.37817383 33.75512695 C-6.37501587 29.8944066 -6.39845682 26.03445352 -6.42382812 22.17382812 C-6.42610115 19.7317718 -6.4268046 17.28971341 -6.42578125 14.84765625 C-6.434991 13.68823013 -6.44420074 12.52880402 -6.45368958 11.33424377 C-6.44746078 10.25980515 -6.44123199 9.18536652 -6.43481445 8.07836914 C-6.43544388 7.13175919 -6.4360733 6.18514923 -6.4367218 5.20985413 C-6.0625 2.8125 -6.0625 2.8125 -4.7306366 0.97166443 C-3.0625 -0.1875 -3.0625 -0.1875 0 0 Z M6.34765625 42.97265625 C4.4628057 45.43183799 4.5041853 47.17872358 4.375 50.25 C4.20705905 53.99050306 3.84957674 56.56427326 1.9375 59.8125 C2.9275 59.8125 3.9175 59.8125 4.9375 59.8125 C5.2675 61.4625 5.5975 63.1125 5.9375 64.8125 C8.79810646 66.15463312 8.79810646 66.15463312 10.83984375 64.88671875 C11.51144531 64.42910156 12.18304688 63.97148438 12.875 63.5 C15.50003672 61.7348019 18.07946593 60.17438201 20.9375 58.8125 C19.9475 58.4825 18.9575 58.1525 17.9375 57.8125 C16.9453125 55.61328125 16.9453125 55.61328125 15.9375 52.8125 C14.92122238 50.86156292 13.87883262 48.92403494 12.8125 47 C12.27367187 46.02417969 11.73484375 45.04835937 11.1796875 44.04296875 C10.76976562 43.30691406 10.35984375 42.57085937 9.9375 41.8125 C7.87874071 41.61601031 7.87874071 41.61601031 6.34765625 42.97265625 Z " fill="#76AB2B" transform="translate(152.0625,0.1875)"/>
<path d="M0 0 C4.39618774 3.88813774 6.50186933 8.18962698 6.89453125 13.9765625 C7.11995938 22.44433339 7.2354556 29.49671932 1.23046875 36.01171875 C-4.42723339 41.21621994 -10.88018905 40.7624471 -18.18359375 40.671875 C-24.01213607 40.29002983 -27.58815786 38.54008144 -31.65625 34.27734375 C-36.85208446 27.5950005 -36.74978047 20.72180606 -35.94921875 12.59375 C-34.82978254 6.80879255 -32.06213025 3.22966671 -28.03125 -0.91015625 C-19.3009654 -6.18893299 -8.33668209 -5.8937609 0 0 Z M-20.71875 8.08984375 C-24.16233877 13.12278119 -24.75374413 17.42221283 -23.875 23.34375 C-23.05744334 26.60796519 -21.91227911 28.30187186 -19.34375 30.46484375 C-15.45434061 31.5963083 -13.30936354 31.85108916 -9.53125 30.33984375 C-6.27003463 27.54451629 -5.51729494 25.34594696 -5.125 21.09375 C-4.94529711 16.05458136 -5.03913101 12.53206712 -8.34375 8.46484375 C-10.33334408 6.05144484 -10.33334408 6.05144484 -14.21875 6.08984375 C-17.21621536 6.1767268 -18.16872238 6.34508801 -20.71875 8.08984375 Z " fill="#78AC2F" transform="translate(97.34375,18.53515625)"/>
<path d="M0 0 C2.91691525 -0.05401695 5.83282724 -0.09368066 8.75 -0.125 C9.575 -0.14175781 10.4 -0.15851562 11.25 -0.17578125 C12.04921875 -0.18222656 12.8484375 -0.18867187 13.671875 -0.1953125 C14.4050293 -0.20578613 15.13818359 -0.21625977 15.89355469 -0.22705078 C18.32171631 0.03467735 19.88267572 0.81024442 22 2 C23.57961754 2.71658146 25.16302488 3.42486392 26.75 4.125 C27.94882813 4.65480469 27.94882813 4.65480469 29.171875 5.1953125 C29.77515625 5.46085937 30.3784375 5.72640625 31 6 C31.515625 5.54625 32.03125 5.0925 32.5625 4.625 C35.57677598 2.61548268 38.51026185 1.90474693 42 1 C42.66 0.67 43.32 0.34 44 0 C46.28919778 -0.12335276 48.58251218 -0.17558478 50.875 -0.1875 C52.10992187 -0.20167969 53.34484375 -0.21585938 54.6171875 -0.23046875 C57.81525439 -0.01258659 59.33887978 0.35010547 62 2 C63.0725 2.53625 64.145 3.0725 65.25 3.625 C66.1575 4.07875 67.065 4.5325 68 5 C67.67 5.99 67.34 6.98 67 8 C58.7776607 8.32244468 58.7776607 8.32244468 55.4375 6.9375 C51.75830057 5.5224233 48.85511595 6.34659052 45 7 C44.67 8.32 44.34 9.64 44 11 C47.73064844 13.48709896 49.57631968 13.29991053 54 13 C54.969375 12.649375 55.93875 12.29875 56.9375 11.9375 C61.02034482 10.68764954 63.81469215 11.2783952 68 12 C67.25 13.9375 67.25 13.9375 66 16 C61.13545056 17.70837941 55.77338173 17.22458647 50.6875 17.25 C49.66720703 17.270625 48.64691406 17.29125 47.59570312 17.3125 C41.520701 17.34391565 37.41924302 16.72035977 32 14 C28.84045003 13.80158038 28.84045003 13.80158038 25.59375 15.47265625 C19.99375565 17.64431768 14.43615446 17.47613769 8.5 17.4375 C6.86611328 17.4674707 6.86611328 17.4674707 5.19921875 17.49804688 C-1.64930324 17.49390629 -6.20426065 16.73122155 -12 13 C-13.3125 10.5625 -13.3125 10.5625 -13 8 C-9.38744381 2.98903497 -5.78679045 2.07889314 0 1 C0 0.67 0 0.34 0 0 Z M0 7 C-0.33 7.99 -0.66 8.98 -1 10 C2.08711033 13.38112083 4.23058589 13.95036038 8.875 14.25 C12.65797805 14.22208134 14.93007588 13.30244309 18 11 C17.67012361 8.52592708 17.42027913 7.3362233 15.4375 5.75 C10.25152398 4.15431507 4.74421887 4.26848004 0 7 Z " fill="#EBECEA" transform="translate(74,58)"/>
<path d="M0 0 C2.1640625 0.2421875 2.1640625 0.2421875 4.625 0.875 C5.44226563 1.07867187 6.25953125 1.28234375 7.1015625 1.4921875 C8.04128906 1.74355469 8.04128906 1.74355469 9 2 C9.03867187 2.93972656 9.03867187 2.93972656 9.078125 3.8984375 C9.13484375 4.71570312 9.1915625 5.53296875 9.25 6.375 C9.29640625 7.18710938 9.3428125 7.99921875 9.390625 8.8359375 C9.79760396 11.13923988 9.79760396 11.13923988 11.8125 12.3125 C15.03414105 13.32501576 17.73457867 12.62796564 21 12 C21.02578125 11.30132812 21.0515625 10.60265625 21.078125 9.8828125 C21.13484375 8.97273438 21.1915625 8.06265625 21.25 7.125 C21.31960937 5.76761719 21.31960937 5.76761719 21.390625 4.3828125 C22 2 22 2 23.8125 0.625 C27.19659441 -0.34188412 29.75716353 0.87747968 33 2 C33.495 7.445 33.495 7.445 34 13 C35.8871875 13.0309375 35.8871875 13.0309375 37.8125 13.0625 C38.52019531 13.07410156 39.22789063 13.08570312 39.95703125 13.09765625 C42.20305461 13.08263217 42.20305461 13.08263217 45 12 C45.33 8.7 45.66 5.4 46 2 C54.03571429 0.66071429 54.03571429 0.66071429 58 3 C58.13513292 4.7687398 58.23205586 6.54043055 58.3125 8.3125 C58.37050781 9.29863281 58.42851563 10.28476563 58.48828125 11.30078125 C58 14 58 14 55.81378174 15.64642334 C52.7448073 17.12276108 50.87272743 17.36948801 47.49121094 17.35644531 C46.41369568 17.35944641 45.33618042 17.36244751 44.22601318 17.36553955 C43.07377258 17.35319275 41.92153198 17.34084595 40.734375 17.328125 C39.54523499 17.32625183 38.35609497 17.32437866 37.13092041 17.32244873 C34.62273343 17.31573519 32.1145568 17.30183465 29.60644531 17.28125 C25.75055302 17.25000448 21.89506902 17.24026953 18.0390625 17.234375 C15.60416164 17.22520875 13.16926496 17.21483419 10.734375 17.203125 C8.99386871 17.19675018 8.99386871 17.19675018 7.21820068 17.19024658 C5.62084076 17.17583527 5.62084076 17.17583527 3.99121094 17.16113281 C2.57820709 17.15089081 2.57820709 17.15089081 1.13665771 17.14044189 C-1 17 -1 17 -2 16 C-2.12557162 13.69006618 -2.17575729 11.37581464 -2.1875 9.0625 C-2.20167969 7.79535156 -2.21585937 6.52820313 -2.23046875 5.22265625 C-2 2 -2 2 0 0 Z " fill="#EDEEED" transform="translate(2,58)"/>
<path d="M0 0 C1.28578213 3.85734639 1.16244157 7.51479343 1.16796875 11.53515625 C1.17129715 12.36961777 1.17462555 13.20407928 1.17805481 14.06382751 C1.18311455 15.82648162 1.18546343 17.58914528 1.18530273 19.35180664 C1.18749446 22.05566014 1.2056743 24.75910903 1.22460938 27.46289062 C1.22754239 29.17447777 1.2295278 30.88606685 1.23046875 32.59765625 C1.23765427 33.40912613 1.24483978 34.22059601 1.25224304 35.05665588 C1.22883091 40.77116909 1.22883091 40.77116909 -1 43 C-3.75720558 43.01691537 -6.26716418 42.47716181 -9 42 C-11.12047383 39.87952617 -10.18868187 35.15729778 -10.203125 32.22265625 C-10.20882507 31.34097275 -10.21452515 30.45928925 -10.22039795 29.55088806 C-10.22986205 27.682131 -10.23638751 25.81335714 -10.24023438 23.94458008 C-10.2499475 21.07799352 -10.28096028 18.21212142 -10.3125 15.34570312 C-10.31902892 13.53385844 -10.32427983 11.72200861 -10.328125 9.91015625 C-10.3404718 9.0486647 -10.3528186 8.18717316 -10.36553955 7.29957581 C-10.35644531 4.88305664 -10.35644531 4.88305664 -10 1 C-6.1496895 -1.56687367 -4.41430237 -0.83288724 0 0 Z " fill="#060606" transform="translate(195,16)"/>
<path d="M0 0 C2.91691525 -0.05401695 5.83282724 -0.09368066 8.75 -0.125 C9.575 -0.14175781 10.4 -0.15851562 11.25 -0.17578125 C12.04921875 -0.18222656 12.8484375 -0.18867187 13.671875 -0.1953125 C14.4050293 -0.20578613 15.13818359 -0.21625977 15.89355469 -0.22705078 C18.32137081 0.03464011 19.88661166 0.80374245 22 2 C22.70640625 2.35320313 23.4128125 2.70640625 24.140625 3.0703125 C26.09375 4.046875 28.046875 5.0234375 30 6 C30.3125 9.3125 30.3125 9.3125 30 13 C23.92037352 18.0663554 16.23791729 17.2480231 8.75 17.3125 C7.64269531 17.34150391 6.53539062 17.37050781 5.39453125 17.40039062 C-1.55217037 17.45408095 -6.12809674 16.81219879 -12 13 C-13.3125 10.5625 -13.3125 10.5625 -13 8 C-9.38744381 2.98903497 -5.78679045 2.07889314 0 1 C0 0.67 0 0.34 0 0 Z M0 7 C-0.33 7.99 -0.66 8.98 -1 10 C2.08711033 13.38112083 4.23058589 13.95036038 8.875 14.25 C12.65797805 14.22208134 14.93007588 13.30244309 18 11 C17.67012361 8.52592708 17.42027913 7.3362233 15.4375 5.75 C10.25152398 4.15431507 4.74421887 4.26848004 0 7 Z " fill="#EAEAEA" transform="translate(234,58)"/>
<path d="M0 0 C2.12890625 0.20703125 2.12890625 0.20703125 4.5625 0.8125 C5.36816406 1.00457031 6.17382812 1.19664063 7.00390625 1.39453125 C9 2 9 2 10 3 C10.07226502 4.85287502 10.0838122 6.70833878 10.0625 8.5625 C10.05347656 9.57441406 10.04445312 10.58632812 10.03515625 11.62890625 C10.02355469 12.41136719 10.01195312 13.19382812 10 14 C11.65 14 13.3 14 15 14 C14.93039063 13.32453125 14.86078125 12.6490625 14.7890625 11.953125 C14.35222672 4.75573549 14.35222672 4.75573549 17.25 1.375 C22.48261279 -0.54362469 27.4801 -0.68500924 33 0 C33.99 0.66 34.98 1.32 36 2 C35.67 2.99 35.34 3.98 35 5 C32.36 5 29.72 5 27 5 C27 7.97 27 10.94 27 14 C29.31 14 31.62 14 34 14 C34.495 14.99 34.495 14.99 35 16 C31.94436853 17.52781574 28.75376118 17.14210254 25.40234375 17.1328125 C24.65287979 17.13376923 23.90341583 17.13472595 23.13124084 17.13571167 C21.54672156 17.13639241 19.96219948 17.13454551 18.37768555 17.13037109 C15.94378445 17.12501383 13.51006727 17.13032347 11.07617188 17.13671875 C9.53906209 17.1360581 8.00195242 17.1347772 6.46484375 17.1328125 C5.73257065 17.13483673 5.00029755 17.13686096 4.24583435 17.13894653 C-0.88504332 17.11495668 -0.88504332 17.11495668 -2 16 C-2.12557162 13.69006618 -2.17575729 11.37581464 -2.1875 9.0625 C-2.20167969 7.79535156 -2.21585938 6.52820313 -2.23046875 5.22265625 C-2 2 -2 2 0 0 Z " fill="#EDEDED" transform="translate(187,58)"/>
<path d="M0 0 C3.5 0.25 3.5 0.25 5.5 2.25 C5.644375 2.930625 5.78875 3.61125 5.9375 4.3125 C6.2159375 5.2715625 6.2159375 5.2715625 6.5 6.25 C9.47474696 7.61764228 9.47474696 7.61764228 12.12890625 6.0703125 C13.09699219 5.51085938 14.06507813 4.95140625 15.0625 4.375 C16.03316406 3.82070313 17.00382812 3.26640625 18.00390625 2.6953125 C18.82761719 2.21835937 19.65132812 1.74140625 20.5 1.25 C23.70062687 -0.35031344 26.22271806 1.21826309 29.5 2.25 C29.5 3.24 29.5 4.23 29.5 5.25 C27.8203125 6.63671875 27.8203125 6.63671875 25.625 7.9375 C24.90570313 8.37449219 24.18640625 8.81148437 23.4453125 9.26171875 C21.5 10.25 21.5 10.25 19.5 10.25 C19.5 10.91 19.5 11.57 19.5 12.25 C20.28375 12.394375 21.0675 12.53875 21.875 12.6875 C24.5 13.25 24.5 13.25 26.5 14.25 C26.17 15.24 25.84 16.23 25.5 17.25 C18.38486245 17.78699151 13.05004254 15.94707634 6.5 13.25 C6.17 14.57 5.84 15.89 5.5 17.25 C1.87 17.25 -1.76 17.25 -5.5 17.25 C-5.55383848 14.79137599 -5.59359038 12.3339245 -5.625 9.875 C-5.64175781 9.17632812 -5.65851563 8.47765625 -5.67578125 7.7578125 C-5.69344267 5.92102514 -5.60303261 4.08398037 -5.5 2.25 C-3.5 0.25 -3.5 0.25 0 0 Z " fill="#EBECEA" transform="translate(151.5,57.75)"/>
<path d="M0 0 C2 3 2 3 1.8125 6.5625 C1 10 1 10 -2 12 C-4.4375 12.4375 -4.4375 12.4375 -7 12 C-9.375 9.8125 -9.375 9.8125 -11 7 C-11 3.77662802 -10.46243134 2.5138126 -8.3125 0.125 C-5.13750771 -1.41959084 -3.33197451 -1.0140792 0 0 Z " fill="#282828" transform="translate(195,1)"/>
<path d="M0 0 C-0.99 0.495 -0.99 0.495 -2 1 C-6.20652198 3.80434799 -9.51503815 7.35938229 -13 11 C-13.66 10.67 -14.32 10.34 -15 10 C-13.54540569 8.35086118 -12.08620743 6.70578218 -10.625 5.0625 C-9.81289062 4.14597656 -9.00078125 3.22945312 -8.1640625 2.28515625 C-5.12217155 -0.92694881 -4.11032937 -1.23309881 0 0 Z " fill="#A0C46C" transform="translate(175,16)"/>
</svg>
